<svg version="1.2" xmlns="http://www.w3.org/2000/svg" viewBox="0 0 1200 800" width="1200" height="800"><style>.s1{fill:#b0c3e3}.s2{opacity:.1;fill:#c0cbe1}</style><g id="1200x800"><g id="&lt;Clip Group&gt;"><g id="&lt;Group&gt;"><path id="&lt;Compound Path&gt;" class="s1" d="M528.5.9v38.9h24.6v90.5h-35.9V158c-2.3.7-4 2.8-4 5.3 0 3 2.4 5.5 5.5 5.5 3 0 5.4-2.5 5.4-5.5 0-2.5-1.7-4.6-3.9-5.3v-24.7h35.9V39.8h41.1v25.5H619v86.8h20.7v32.4c-2.3.7-4 2.8-4 5.3 0 3 2.4 5.4 5.5 5.4 3 0 5.4-2.4 5.4-5.4 0-2.5-1.7-4.6-3.9-5.3v-35.4H622V65.3h47.5V.9h-3v61.4H622V39.8h24.8V.9h-3v35.9H622V.9h-3v35.9h-18.8V.9h-3v35.9h-41.1V.9h-3v35.9h-21.6V.9zm71.7 38.9H619v22.5h-18.8z"/><path class="s1" d="M689.7.9v49.9h20v23h38V102c-2.3.7-4 2.8-4 5.3 0 3 2.4 5.5 5.5 5.5 3 0 5.4-2.5 5.4-5.5 0-2.5-1.6-4.6-3.9-5.3V70.8h-38v-20H771v31.3h18.7v33.3h20V132c-2.3.7-4 2.8-4 5.3 0 3 2.4 5.5 5.5 5.5 3 0 5.4-2.5 5.4-5.5 0-2.5-1.6-4.6-3.9-5.3v-16.6H882V.9h-3v111.5h-66.3V82.1h52V.9h-3v78.2h-49v-20h32V.9h-3v55.2h-32v23h-17V47.8H774V22.7h51.3V.9h-3v18.8H774V.9h-3v18.8h-32.3V.9h-3v21.8H771v25.1h-58.3V.9h-3v46.9h-17V.9zm103 81.2h17v30.3h-17zM774 50.8h15.7v28.3H774zm412.5 64.6V.9h-3v111.5h-52.4V56.8h38.6V.9h-3v52.9h-35.6V.9h-3v52.9h-15.9V.9h-3v52.9h-48.5v-14h30V.9h-3v35.9h-27V.9h-3v35.9h-8.4V.9h-3v35.9h-8.6V.9h-3v38.9h11.6v39.3h-47.2V64.4h-17.8V.9h-3v63.5h-14.6V.9h-3v63.5h-30V.9h-3v63.5h-11V.9h-3v63.5h-15.1V.9h-3v66.5h18.1v29.4h14v18.6h36V96.8h32.4v18.6h132v69.1c-2.3.7-4 2.8-4 5.3 0 3 2.4 5.4 5.5 5.4 3 0 5.4-2.4 5.4-5.4"/><path id="&lt;Path&gt;" class="s1" d="M1017.8.9v45.9c-2.3.7-4 2.8-4 5.3 0 3 2.5 5.5 5.5 5.5s5.5-2.5 5.5-5.5c0-2.5-1.7-4.6-4-5.3V.9z"/><path class="s1" d="M325.7 112.4V.9h-3v114.5H392V132c-2.3.7-4 2.8-4 5.3 0 3 2.5 5.5 5.5 5.5s5.5-2.5 5.5-5.5c0-2.5-1.7-4.6-4-5.3v-16.6h14.2V82.1h24.5V50.8H492v20h-38V102c-2.3.7-4 2.8-4 5.3 0 3 2.5 5.5 5.5 5.5s5.5-2.5 5.5-5.5c0-2.5-1.7-4.6-4-5.3V73.8h38v-23h20V.9h-3v46.9h-17V.9h-3v46.9h-58.3V22.7H469V.9h-3v18.8h-32.3V.9h-3v18.8h-48.4V.9h-3v21.8h51.4v25.1h-24.5v31.3H395v-23h-32V.9h-3v58.2h32v20h-49V.9h-3v81.2h52v30.3zm83.6-61.6h21.4v28.3h-21.4zM395 82.2h11.3v30.2H395zM73.6 184.5c-2.3.7-4 2.8-4 5.3 0 3 2.5 5.4 5.5 5.4s5.5-2.4 5.5-5.4c0-2.5-1.7-4.6-4-5.3v-69.1h126.9V96.8H241v18.6h36V96.8h14V67.4h18.1V.9h-3v63.5H291V.9h-3v63.5h-11V.9h-3v63.5h-30V.9h-3v63.5h-14.7V.9h-3v63.5h-22.8v14.7h-42.2V39.8H170V.9h-3v35.9h-8.7V.9h-3v35.9H147V.9h-3v35.9h-27V.9h-3v38.9h30v14H95.5V.9h-3v52.9H76.6V.9h-3v52.9H38V.9h-3v55.9h38.6v55.6H21.1V.9h-3v114.5h55.5zM277 67.4h11v26.4h-11zm-33 0h30v26.4h-30zm0 29.4h30v15.6h-30zm-40.5-14.7h22.8V67.4H241v26.4h-37.5zm0-14.8h19.8v11.8h-19.8zm-108-10.6H147v-17h8.3V82h45.2v11.7h-105zm-18.9 0h15.9v40h108v15.6H76.6z"/><path class="s1" d="M183.9.9v45.9c-2.3.7-4 2.8-4 5.3 0 3 2.4 5.5 5.5 5.5 3 0 5.4-2.5 5.4-5.5 0-2.5-1.7-4.6-3.9-5.3V.9z"/><path class="s2" d="M1153.5 152.8V.9h-3v148.9h-141v-134h65.7V.9h-3v11.9h-62.7V.9h-3v11.9h-10v18h-49.3V.9h-3v29.9H907V.9h-3v32.9h40.2v45.3h-54V.9h-3v81.2h60V33.8h52.3v-18h7v134h-35.4v-19.5H854V.9h-3v132.4h117.1v19.5h38.4V172c-2.3.7-4 2.8-4 5.3 0 3 2.5 5.5 5.5 5.5s5.5-2.5 5.5-5.5c0-2.5-1.7-4.6-4-5.3v-19.2zm-1109 87.8c-2.3.6-4 2.7-4 5.2 0 3 2.5 5.5 5.5 5.5s5.5-2.5 5.5-5.5c0-2.5-1.7-4.6-4-5.2v-25.8h64v-62h17.7v26h174.3v-40H353v-35.5h20.5V37h27V.9h-3V34h-24V.9h-3V34H353V.9h-3V34h-92.5v101.8h-24V.9h-3v137.9h27v11H132.2v-16.5h85.3V.9h-3v129.4h-82.3V.9h-3v129.4h-20.7v19.5h-49V.9h-3v151.9h52v59h-61V.9h-3v210.9h-15V.9h-3v213.9h18zM353 37h17.5v63.3H353zm-92.5 0H350v63.4h-49.5v35.5h-40zm89.5 98.8h-46.5v-32.5H350zm-217.8 17h128.3v-14h40v37H132.2zm-20.7-19.4h17.7v16.4h-17.7zM420.5.9v183.6c-2.3.7-4 2.8-4 5.3 0 3 2.5 5.4 5.5 5.4s5.5-2.4 5.5-5.4c0-2.5-1.7-4.6-4-5.3V.9zm26 58.4V.9h-3v61.4H479v34.5h173.5v28.3h182.3V.9h-3v121.2H655.5V96.8h23.8V.9h-3v92.9h-20.8V82.3h-66.3V.9h-3v84.4h66.3v8.5H482V62.3h24V22.7h68V.9h-3v18.8h-68v39.6h-21V34h-25V.9h-3V37h25v22.3z"/><path class="s1" d="M1096.4 672.2c2.3-.7 3.9-2.8 3.9-5.3 0-3-2.4-5.5-5.4-5.5s-5.5 2.5-5.5 5.5c0 2.5 1.7 4.6 4 5.3v16.6h-20v33.3h-18.7v31.3h-58.3v-20h38v-31.2c2.3-.7 3.9-2.8 3.9-5.3 0-3-2.4-5.5-5.4-5.5s-5.5 2.5-5.5 5.5c0 2.5 1.7 4.6 4 5.3v28.2h-38v23h-20v47.5h3v-44.5h17v44.5h3v-44.5h58.3v25.1h-35.3v19.4h3v-16.4h32.3v16.4h3v-16.4h48.3v16.4h3v-19.4h-51.3v-25.1h18.7v-31.3h17v23h32v52.8h3v-55.8h-32v-20h49v75.8h3v-78.8h-52v-30.3h87.8v109.1h3V688.8h-90.8zm-23 81.2h-15.7v-28.3h15.7zm20-31.3h-17v-30.3h17zm-831.1-29.9v108.7h3V689.2H196v-16.7c2.2-.6 3.9-2.7 3.9-5.2 0-3-2.4-5.5-5.4-5.5-3.1 0-5.5 2.5-5.5 5.5 0 2.5 1.7 4.6 4 5.2v16.7h-20v33.2h-18.7v31.4h-12.5v-14.5H96v-5.5h38v-31.3c2.2-.6 3.9-2.7 3.9-5.2 0-3-2.4-5.5-5.4-5.5-3.1 0-5.5 2.5-5.5 5.5 0 2.5 1.7 4.6 4 5.2v28.3H93v8.5H47.5V620.1c2.3-.7 4-2.8 4-5.3 0-3-2.5-5.5-5.5-5.5s-5.5 2.5-5.5 5.5c0 2.5 1.7 4.6 4 5.3v119.2H7.2v61.6h3v-58.6h34.3v58.6h3v-58.6H93v11.5H73v47.1h3v-44.1h17v44.1h3v-44.1h42.8v25.1H119v19h3v-16h16.8v16h3v-16h12.5v16h3v-16h42v16h3v-19h-45v-25.1H176v-31.4h17v23.1h32v52.4h3v-55.4h-32v-20.1h49v75.5h3v-78.5h-52v-30.2zm-123.5 61.6H95.9v-11.5h42.9zm15.5 28.1h-12.5v-25.1h12.5zm18.6-28.1h-15.6v-28.4h15.6zm20-31.3h-17v-30.3h17zM850 800.9v-47.5h-20v-68.3h-86.3v-28.3c2.3-.6 4-2.7 4-5.2 0-3-2.5-5.5-5.5-5.5s-5.5 2.5-5.5 5.5c0 2.5 1.7 4.6 4 5.2v31.3H827v65.3H720.4v-31.3h-24.5v-33.3h-86.5v50.5h-39.6v-50.1H379.3v18.6H347v-18.6h-36v18.6h-14v29.4h-18.2v63.7h3v-60.7H297v60.7h3v-60.7h11v60.7h3v-60.7h30v60.7h3v-60.7h14.6v60.7h3v-60.7h17.7v-14.8h47.3v39.4H418v36.1h3v-33.1h8.6v33.1h3v-33.1h8.4v33.1h3v-33.1h27v33.1h3v-36.1h-30v-14h48.4v50.1h3v-50.1H550v50.1h3v-53.1h-57.6v-40H382.3v-15.6h184.5v50.1h42.6v58.6h3v-58.6h14.3v58.6h3v-58.6h12.1v58.6h3v-61.6h-15.1v-14.2h63.2v31.3h24.5v25.1H666v19.4h3v-16.4h48.4v16.4h3v-16.4h32.3v16.4h3v-19.4h-35.3v-25.1H827v44.5h3v-44.5h17v44.5zm-539-63.7h-11v-26.4h11zm33 0h-30v-26.4h30zm0-29.4h-30v-15.6h30zm35.3 14.6h-17.7v14.8H347v-26.4h32.3zm0 14.7h-14.7v-11.7h14.7zm113.1-26.4v37H441v17h-8.4v-42.3h-50.3v-11.7zM693 722h-66.3v17.2h-14.3v-47.5H693zm24.4 31.4H696V725h21.4z"/><path class="s1" d="M404.1 800.9v-43.2c2.3-.6 4-2.7 4-5.2 0-3.1-2.5-5.5-5.5-5.5s-5.5 2.4-5.5 5.5c0 2.5 1.7 4.6 4 5.2v43.2zm546.1-105.7v105.7h3V692.2h-72.3v25.5h-68.7v83.2h3v-80.2h65.7v80.2h3v-53.4h43.6v53.4h3v-56.4h-46.6v-49.3z"/><path class="s2" d="M351.4 671.2H234.3v129.7h3V674.2h117.1v-19.4h37v146.1h3V651.8h-43zm584.8 7.9v28.3h-97.7V655c2.5-.6 4.4-2.9 4.4-5.7 0-3.2-2.7-5.9-5.9-5.9-3.3 0-5.9 2.7-5.9 5.9 0 2.8 1.9 5.1 4.4 5.7v52.4h-72.8v34.5h-35.5v59h3v-56h32.5v22.3h-25v33.7h3v-30.7h25v-25.3h21v39.6h48.8v16.4h3v-16.4h16.2v16.4h3v-19.4h-19.2v-71.1h97.7v8.5h-66.3v82h3v-79h66.3v-11.5H960v90.5h3v-93.5h-23.8v-25.3h176.3v118.8h3V679.1zM835.5 781.5h-45.8v-39.6h-24v-31.5h69.8zM64.6 719.3h-44v81.6h3v-78.6h44v-39.9h149.7v118.5h3V679.4H64.6zm518-52.2c-3.3 0-5.9 2.6-5.9 5.9 0 2.7 1.8 5 4.4 5.7v122.2h3V678.7c2.5-.7 4.4-3 4.4-5.7 0-3.3-2.7-5.9-5.9-5.9"/><g/><g/><g/></g></g></g></svg>